<svg width="32" height="32" viewBox="0 0 32 32" fill="none" xmlns="http://www.w3.org/2000/svg">
<path d="M8.10667 15.4934C8.17013 15.3297 8.26528 15.1802 8.38667 15.0534L15.0533 8.38675C15.1777 8.26243 15.3252 8.16382 15.4877 8.09654C15.6501 8.02926 15.8242 7.99463 16 7.99463C16.3551 7.99463 16.6956 8.13568 16.9467 8.38675C17.071 8.51107 17.1696 8.65866 17.2369 8.82109C17.3042 8.98351 17.3388 9.15761 17.3388 9.33342C17.3388 9.68849 17.1977 10.029 16.9467 10.2801L12.5467 14.6668H22.6667C23.0203 14.6668 23.3594 14.8072 23.6095 15.0573C23.8595 15.3073 24 15.6465 24 16.0001C24 16.3537 23.8595 16.6928 23.6095 16.9429C23.3594 17.1929 23.0203 17.3334 22.6667 17.3334H12.5467L16.9467 21.7201C17.0716 21.844 17.1708 21.9915 17.2385 22.154C17.3062 22.3165 17.3411 22.4907 17.3411 22.6667C17.3411 22.8428 17.3062 23.017 17.2385 23.1795C17.1708 23.342 17.0716 23.4895 16.9467 23.6134C16.8227 23.7384 16.6752 23.8376 16.5128 23.9053C16.3503 23.973 16.176 24.0078 16 24.0078C15.824 24.0078 15.6497 23.973 15.4872 23.9053C15.3248 23.8376 15.1773 23.7384 15.0533 23.6134L8.38667 16.9468C8.26528 16.8199 8.17013 16.6704 8.10667 16.5068C7.97331 16.1821 7.97331 15.818 8.10667 15.4934Z" fill="#088395"/>
</svg>
